<svg xmlns="http://www.w3.org/2000/svg" fill="none" viewBox="0 0 100 100"><g clip-path="url(#a)"><path fill="#fff" d="M34.1 23.406c1.836.501 3.672.835 5.508 1.336 1.836.5 3.673.834 5.509 1.335.5.167.667 0 .834-.5.668-2.838 1.336-5.51 2.004-8.347.166-.5.333-.668.834-.5 1.67.5 3.172.834 4.841 1.168.5.167.5.334.334.668-.668 2.67-1.335 5.508-2.003 8.179 0 .167 0 .334-.167.668 1.335.334 2.838.667 4.173 1.001.167 0 .334-.334.5-.5.502-2.17 1.002-4.174 1.67-6.344l.5-2.003c0-.334.168-.5.502-.334 1.669.501 3.338.835 5.174 1.336.167 0 .167.167.334.167-.5 2.17-1.001 4.173-1.502 6.176-.167.835-.334 1.67-.668 2.504-.167.5 0 .668.501.834l5.509 2.504c1.669 1.002 3.171 2.337 4.34 4.007 1.502 2.504 1.669 5.174 1.001 7.845-.5 1.836-1.168 3.506-2.504 4.841-1.001 1.002-2.337 1.67-3.672 2.17-.167 0-.334.167-.668.167.668.5 1.336.835 2.003 1.336 2.004 1.502 3.339 3.338 4.007 5.675.334 1.836.166 3.84-.334 5.676-.668 2.337-1.503 4.34-3.005 6.176-1.836 2.17-4.173 3.338-6.844 3.672-3.505.501-6.844.167-10.182-.334q-.751-.25-1.002.501c-.668 2.671-1.336 5.509-2.003 8.18-.167.667-.167.834-1.002.5-1.502-.333-3.171-.834-4.674-1.168-.5-.167-.5-.334-.334-.668.668-2.837 1.336-5.675 2.17-8.346 0-.334.167-.5-.166-.668a157 157 0 0 0-4.174-1.001c-.334 1.502-.834 3.004-1.168 4.507s-.835 3.004-1.169 4.507c-.167.334-.167.5-.667.334-1.67-.501-3.339-.835-5.008-1.169-.501-.167-.501-.334-.334-.668.668-2.837 1.335-5.675 2.17-8.346 0-.167.167-.334.167-.668-3.84-1.001-7.679-2.003-11.685-3.004.334-.668.5-1.169.835-1.837.667-1.502 1.335-3.004 1.836-4.34.167-.5.334-.5.835-.5 1.168.333 2.503.667 3.672.834 1.335.334 2.337-.334 2.504-1.502 2.17-8.513 4.34-17.027 6.343-25.707.334-1.336-.5-2.838-2.003-3.339-1.502-.5-3.005-.834-4.34-1.168-.334 0-.501-.167-.334-.5.5-1.837 1.002-3.84 1.502-5.676-.667.5-.667.5-.5.333m8.513 41.232c.167 0 .334.166.334.166 2.67.668 5.508 1.503 8.346 1.67 2.003.167 3.84.167 5.676-.501 3.171-1.002 4.507-5.175 2.67-7.846-.834-1.335-2.17-2.17-3.505-3.004-3.005-1.67-6.51-2.337-9.849-3.005-.5-.167-.5 0-.667.5-.334 1.67-.835 3.172-1.169 4.842-.668 2.337-1.168 4.674-1.836 7.178M56.635 47.61c.334 0 1.168-.167 1.836-.334 3.172-.668 4.84-4.34 3.172-7.178-.835-1.502-2.337-2.504-3.84-3.171-2.337-1.002-4.674-1.503-7.178-2.17-.5-.167-.667 0-.834.5-.835 3.506-1.67 6.844-2.671 10.35-.167.334 0 .5.334.668.667.166 1.168.333 1.836.5 2.504.334 4.674.835 7.345.835"/><circle cx="50" cy="50" r="50" fill="url(#b)"/><circle cx="50" cy="50" r="50" fill="url(#c)"/><path fill="#fff" d="M51.193 85.162c8.71-.555 13.133-4.423 13.225-10.229.105-6.692-11.081-21.095-12.733-27.09-1.266-4.594-.21-10.568 4.7-11.472 5.255-.967 8.618 3.826 8.618 9.261 0 8.253-.82 24.61 4.023 27.918 3.056 2.085 9.4-.184 13.633-9.601l-.185.424a35.3 35.3 0 0 0 3.144-14.604c0-19.544-15.844-35.388-35.388-35.388q-.46 0-.912.013v-.013c-8.71.555-13.133 4.422-13.225 10.228-.105 6.693 8.575 15.298 10.228 21.288 1.265 4.595.21 10.569-4.7 11.473-5.255.967-7.9-4.549-8.618-9.261-1.244-8.156 3.325-18.813-1.522-22.117-3.056-2.085-9.417.088-13.646 9.5l.248-.546a35.3 35.3 0 0 0-3.245 14.823c0 19.544 15.844 35.388 35.388 35.388.61 0 1.22-.016 1.82-.046"/></g><defs><linearGradient id="b" x1="100" x2="-18.063" y1="1.944" y2="45.734" gradientUnits="userSpaceOnUse"><stop stop-color="#F87A31"/><stop offset="1" stop-color="#FE9D66"/></linearGradient><linearGradient id="c" x1="61.207" x2="-28.775" y1="50" y2="8.284" gradientUnits="userSpaceOnUse"><stop stop-color="#FF8C73" stop-opacity="0"/><stop offset="1" stop-color="#FF8C73"/></linearGradient><clipPath id="a"><rect width="100" height="100" fill="#fff" rx="50"/></clipPath></defs></svg>