<svg xmlns="http://www.w3.org/2000/svg" id="Calque_2" viewBox="0 0 170.79 170.79"><defs><style>.cls-2{stroke-width:0;fill:#fff}</style></defs><g id="illustrations"><circle cx="85.39" cy="85.39" r="85.39" style="stroke-width:0;fill:#e3051c"/><path d="M85.38 60.01c5.51 0 9.98-4.47 9.98-9.98s-4.47-9.98-9.98-9.98-9.97 4.47-9.97 9.98 4.47 9.98 9.97 9.98" class="cls-2"/><path d="M126.04 60.46c-5.24-1.74-10.89 1.11-12.63 6.34l-10.03 30.01-9.01-18.2c-1.74-3.54-5.28-5.58-8.99-5.58-3.7 0-7.25 2.04-8.99 5.58l-9.01 18.2L57.35 66.8c-4.33-12.38-22.9-6.27-18.97 6.28l17.72 53c.24.71.54 1.37.91 1.99a9.9 9.9 0 0 0 4.17 3.85c4.95 2.44 10.94.4 13.38-4.56l10.82-21.86 10.82 21.86c2.44 4.95 8.43 6.99 13.38 4.56 2.43-1.2 4.14-3.2 5-5.62.09-.14 17.71-53.04 17.8-53.22 1.74-5.24-1.11-10.89-6.34-12.63Z" class="cls-2"/></g></svg>